<?xml version="1.0" encoding="UTF-8"?>
<svg id="Layer_1" xmlns="http://www.w3.org/2000/svg" viewBox="0 0 259.88 127.15">
  <defs>
    <style>
      .cls-1 {
        fill: #898a8d;
      }

      .cls-2 {
        fill: #d7282f;
      }
    </style>
  </defs>
  <g id="Logos_All">
    <path class="cls-1" d="M12.21,98.88h12.85c4.64,0,5.37,1.53,5.37,4.55v1.31c0,2.26-1.28,2.88-2.95,3h0c2.22.4,2.75,1.55,2.75,3v4.1h-2v-3.52c0-2.51-1.22-2.82-3.19-2.82h-10.65v6.34h-2.18v-15.96ZM24.82,106.82c2.42,0,3.44-.64,3.44-2.33v-1.49c0-1.8-.78-2.38-4-2.38h-9.9v6.17l10.46.03Z"/>
    <path class="cls-1" d="M45,104.72c0-4.07,1.37-6,5.72-6h9.25c4.35,0,5.73,2,5.73,6v4.39c0,4.06-1.38,6-5.73,6h-9.28c-4.35,0-5.72-2-5.72-6l.03-4.39ZM63.52,103.89c0-2.79-1.68-3.41-3.77-3.41h-8.84c-2.08,0-3.77.62-3.77,3.41v6c0,2.8,1.69,3.42,3.77,3.42h8.81c2.09,0,3.77-.62,3.77-3.42l.03-6Z"/>
    <path class="cls-1" d="M80.64,98.88h13.72c3.33,0,4.26,1.73,4.26,3.57v1.38c0,1.15-.65,2.33-2.6,2.53v.09c1.71.08,3.22.73,3.22,3.17v1.91c0,2.24-2,3.41-4.66,3.41h-13.94v-16.06ZM96.44,102.34c0-1.46-1.62-1.69-2.28-1.69h-11.34v5.13h11.23c1.17,0,2.39-.38,2.39-2v-1.44ZM97.07,109.86c0-2-1.12-2.3-3.09-2.3h-11.16v5.61h11.49c2,0,2.76-.73,2.76-2.15v-1.16Z"/>
    <path class="cls-1" d="M113.81,104.72c0-4.07,1.38-6,5.73-6h9.25c4.35,0,5.73,2,5.73,6v4.39c0,4.06-1.38,6-5.73,6h-9.25c-4.35,0-5.73-2-5.73-6v-4.39ZM132.34,103.89c0-2.79-1.68-3.41-3.77-3.41h-8.81c-2.08,0-3.77.62-3.77,3.41v6c0,2.8,1.69,3.42,3.77,3.42h8.81c2.09,0,3.77-.62,3.77-3.42v-6Z"/>
    <path class="cls-1" d="M155.86,100.65h-8.12v-1.77h18.42v1.77h-8.16v14.29h-2.18l.04-14.29Z"/>
    <path class="cls-1" d="M179.87,98.88h2.13v16.06h-2.17l.04-16.06Z"/>
    <path class="cls-1" d="M197.09,104.72c0-4.07,1.37-6,5.72-6h8.32c4,0,5,1.84,5,4v1.38h-1.91v-.73c0-2.73-1.68-2.86-3.68-2.86h-7.54c-2.08,0-3.77.62-3.77,3.41v6c0,2.8,1.69,3.42,3.77,3.42h7.61c2.93,0,3.78-.62,3.78-2.8v-1h2v1.09c0,2.91-.93,4.48-5.44,4.48h-8.21c-4.35,0-5.72-2-5.72-6l.07-4.39Z"/>
    <path class="cls-1" d="M230.7,109.89h2v1.11c0,1.57.85,2.33,3.55,2.33h6.75c3.15,0,4.08-.67,4.08-3,0-2-.8-2.53-3.5-2.53h-4.13c-6.64,0-8.81-.4-8.81-4.66,0-3.66,2.17-4.48,6.66-4.48h4.7c5.39,0,6.74,1.38,6.74,4.24v.55h-2c0-2.55-.31-3-6-3h-2.34c-4.19,0-5.68.22-5.68,2.86,0,1.91.6,2.55,4,2.55h6.43c4.24,0,6,1.22,6,4v1c0,4-3.24,4.24-6.45,4.24h-6c-3.17,0-6-.55-6-4.06v-1.15Z"/>
    <path class="cls-1" d="M227.07,42.14c-.18,0-.35.06-.5.16l-20.64,14.35-20.74-14.35c-.14-.1-.31-.16-.49-.16h-18.22c-.39,0-.73.25-.84.62-.01.09-.01.17,0,.26,0,.29.14.56.38.72l29.53,20-32,21.47c-.24.16-.38.43-.38.72-.01.09-.01.17,0,.26.11.36.45.61.83.61h18.62c.17,0,.35-.05.49-.15l22.86-15.82,22.65,15.82c.15.1.32.15.5.15h18.28c.38,0,.73-.24.84-.61,0-.09,0-.17,0-.26,0-.29-.15-.56-.39-.72l-31.8-21.48,29.63-20c.24-.16.38-.43.38-.72.01-.09.01-.17,0-.26-.11-.37-.45-.62-.83-.62h-18.16Z"/>
    <path class="cls-1" d="M83.82,42.14c-.26,0-.51.12-.68.32,0,0-26,31.81-27.3,33.39l-26.84-33.38c-.17-.21-.42-.33-.68-.33h-15.26c-.49,0-.88.4-.87.89,0,.2.07.39.19.54l35.33,42.9c.17.2.42.31.68.31h14.9c.26,0,.5-.11.66-.31l35.84-42.89c.31-.37.26-.93-.12-1.24-.16-.13-.35-.2-.55-.2h-15.3Z"/>
    <path class="cls-2" d="M108,42.14c-1.92-3.75-2.89-7.92-2.82-12.14,0-9.77,4.9-18,10.86-18h37.7c2,0,3.66,2.73,3.66,6.05s-1.65,6.06-3.66,6.06h-37.74c-2,0-3.55,2.73-3.55,5.86s1.42,6.16,3.55,6.16h37.7c2,0,3.66,2.69,3.66,6h0c0,3.28-1.65,6-3.66,6h-37.7c-2.13,0-3.55,3-3.55,6.15s1.55,5.84,3.55,5.84h37.7c2,0,3.66,2.74,3.66,6.06s-1.65,6.06-3.66,6.06h-37.7c-6,0-10.86-8.21-10.86-18-.05-4.2.93-8.36,2.86-12.09h0Z"/>
    <path class="cls-1" d="M245.36,74.49c.51,0,1.01.13,1.45.38.47.26.85.65,1.09,1.13.26.45.4.96.4,1.48,0,.51-.14,1.01-.39,1.46-.25.45-.63.82-1.09,1.06-.9.52-2.02.52-2.92,0-.46-.25-.84-.62-1.09-1.08-.51-.91-.51-2.03,0-2.94.26-.46.65-.84,1.11-1.09.44-.25.93-.39,1.44-.4ZM245.36,74.98c-.42,0-.83.11-1.2.32-.39.2-.71.52-.92.91-.22.37-.33.8-.33,1.23,0,.42.11.84.32,1.21.21.38.53.7.91.91.37.21.79.33,1.22.33.43,0,.85-.11,1.22-.33.38-.21.7-.53.91-.91.21-.37.32-.79.32-1.21,0-.43-.11-.86-.33-1.23-.21-.39-.53-.71-.92-.91-.37-.2-.78-.3-1.2-.3v-.02ZM244.07,79.06v-3.16h1.09c.28,0,.57.03.84.1.16.06.3.17.39.31.1.13.15.29.15.46,0,.23-.09.45-.25.61-.17.17-.41.28-.65.29.1.04.19.09.27.16.17.2.33.41.46.63l.39.62h-.63l-.27-.5c-.14-.28-.32-.53-.54-.74-.12-.08-.27-.11-.41-.1h-.3v1.34l-.54-.02ZM244.58,77.28h.62c.21.02.43-.02.61-.13.11-.08.16-.21.16-.35,0-.09-.03-.18-.08-.25-.05-.08-.12-.14-.21-.17-.17-.03-.35-.03-.52,0h-.58v.9Z"/>
  </g>
</svg>